PathFileType	4	(X/Y/Z)	C:\Users\Basilio\Documents\Thesis Gigler\squatting_fais\c3dfiles\040\SJ_pre1\markers_experimental.trc
DataRate	CameraRate	NumFrames	NumMarkers	Units	OrigDataRate	OrigDataStartFrame	OrigNumFrames
200.000000	200.000000	4	62	mm	200.000000	440	1174
Frame#	Time	FHD			LBHD			RBHD			C7			T10			CLAV			LSHO			LUUPA			LMUPA			LDUPA			LLEP			LMEP			LRAD			LUL			LRFIN			RSHO			RUPA1			RMUPA			RDUPA			RLEP			RMEP			RRAD			RUL			RUFIN			LASI			RASI			USACR			LSACR			RSACR			LTHI1			LTHI2			LTHI3			LTHI4			LLFC			LMFC			LTIB1			LTIB2			LTIB3			LTIB4			LLMAL			LMMAL			LHEE			LMT1			LMT2			LMT5			RTHI			RTHI2			RTHI3			RTHI4			RLFC			RMFC			RTIB1			RTIB2			RTIB3			RTIB4			RLMAL			RMMAL			RHEE			RMT1			RMT2			RMT5			*61			
		X1	Y1	Z1	X2	Y2	Z2	X3	Y3	Z3	X4	Y4	Z4	X5	Y5	Z5	X6	Y6	Z6	X7	Y7	Z7	X8	Y8	Z8	X9	Y9	Z9	X10	Y10	Z10	X11	Y11	Z11	X12	Y12	Z12	X13	Y13	Z13	X14	Y14	Z14	X15	Y15	Z15	X16	Y16	Z16	X17	Y17	Z17	X18	Y18	Z18	X19	Y19	Z19	X20	Y20	Z20	X21	Y21	Z21	X22	Y22	Z22	X23	Y23	Z23	X24	Y24	Z24	X25	Y25	Z25	X26	Y26	Z26	X27	Y27	Z27	X28	Y28	Z28	X29	Y29	Z29	X30	Y30	Z30	X31	Y31	Z31	X32	Y32	Z32	X33	Y33	Z33	X34	Y34	Z34	X35	Y35	Z35	X36	Y36	Z36	X37	Y37	Z37	X38	Y38	Z38	X39	Y39	Z39	X40	Y40	Z40	X41	Y41	Z41	X42	Y42	Z42	X43	Y43	Z43	X44	Y44	Z44	X45	Y45	Z45	X46	Y46	Z46	X47	Y47	Z47	X48	Y48	Z48	X49	Y49	Z49	X50	Y50	Z50	X51	Y51	Z51	X52	Y52	Z52	X53	Y53	Z53	X54	Y54	Z54	X55	Y55	Z55	X56	Y56	Z56	X57	Y57	Z57	X58	Y58	Z58	X59	Y59	Z59	X60	Y60	Z60	X61	Y61	Z61	X62	Y62	Z62	

441	2.2	45.39618301391602	1068.23388671875	-891.3706054687502	-81.55420684814455	1027.39404296875	-937.6289062500002	-143.165267944336	995.6761474609377	-806.7598876953127	-161.0472717285157	929.2243652343752	-850.3823852539065	-406.5693664550782	745.0457153320314	-860.999694824219	-94.64280700683595	791.095153808594	-854.272399902344	-78.90524291992189	850.9495849609377	-1022.501220703125	-199.532699584961	797.6077880859377	-1184.955810546875	-224.9305572509766	756.9634399414064	-1179.153442382813	-251.4317779541016	778.5716552734377	-1228.232666015625	-304.5445556640626	769.5935668945315	-1270.220581054688	-346.8394165039063	825.6384887695315	-1242.060791015625	-510.3317260742189	643.9743652343751	-1096.571899414063	-486.9897460937501	585.1461181640626	-1134.14990234375	-467.8176879882814	630.7649536132814	-1047.031005859375	-79.14538574218751	819.7222900390627	-685.3960571289064	-196.2804412841797	802.0742797851565	-516.5410766601564	-219.1127929687501	757.6006469726564	-514.2031860351564	-243.3141174316407	786.4418945312502	-467.0108642578126	-296.9947814941407	754.5023803710939	-428.7969665527345	-354.7302246093751	810.6358032226565	-463.3785095214845	-455.1568603515626	627.3760986328126	-630.1575317382814	-439.0538024902345	562.7600097656251	-591.0733032226564	-404.4335021972657	616.4539184570314	-680.2932739257814	nan	nan	nan	nan	nan	nan	-541.0780639648439	651.0724487304689	-860.6274414062502	-565.1575927734376	631.3057250976564	-890.6805419921877	-574.1313476562501	630.9172973632814	-837.8127441406252	-371.2593383789063	444.9607543945314	-1095.653930664063	-290.9735107421876	469.8170776367189	-1114.634155273438	-278.9688720703126	513.8644409179689	-1101.984741210938	-243.7680816650391	434.3899230957032	-1121.130737304688	-129.2047271728516	425.4486694335939	-1134.949340820313	-108.4484558105469	377.1149291992188	-1010.53076171875	-188.7363586425782	233.1596374511719	-1107.234619140625	-275.8519897460938	251.8779907226563	-1129.046142578125	-245.2118072509766	219.8618927001954	-1122.873046875	-279.1196899414063	148.5687408447266	-1096.050903320313	-382.2696838378907	105.6674728393555	-1098.091430664063	-330.7163391113282	97.6186218261719	-1025.653442382813	-443.8723144531251	49.93410491943361	-1056.269653320313	-222.4639282226563	56.15406799316408	-1085.975463867188	-234.9579162597657	56.06974411010744	-1131.03369140625	-292.1248474121094	35.06722259521485	-1169.546508789063	-363.4544067382813	473.7868652343751	-627.0603027343751	-300.0259399414063	491.3194885253907	-615.5825805664064	-287.8996887207032	520.7603149414064	-627.1454467773439	-236.3800964355469	438.212860107422	-598.6354980468751	-146.3382110595703	411.967010498047	-586.3506469726564	-114.0372543334961	390.1390991210939	-720.0572509765626	-189.319808959961	248.9339141845704	-615.1724243164064	-299.2535095214844	237.4100646972657	-615.1055908203126	-263.5237731933594	206.9346923828126	-616.9655761718751	-273.6556091308594	158.574691772461	-647.8576049804689	-384.2913208007814	101.2049789428711	-646.2134399414064	-342.7765197753907	98.57712554931643	-726.0377807617189	-444.472381591797	50.78004074096681	-704.0213012695314	-227.4049072265626	54.9239845275879	-654.5347900390626	-240.4205322265626	58.15452957153322	-616.5029907226564	-292.7747192382813	36.17834472656251	-574.1463012695314	nan	nan	nan	
442	2.205	45.14776229858399	1068.390014648438	-891.3638916015627	-81.70198822021486	1027.523681640625	-937.5845947265627	-143.3328094482422	995.693542480469	-806.601257324219	-160.9942932128907	929.260437011719	-850.186218261719	-406.579071044922	745.1792602539064	-860.8605957031252	-94.61285400390626	791.1914672851565	-854.2175292968752	-78.96589660644533	851.2002563476565	-1022.390319824219	-199.4426879882813	797.448913574219	-1184.849243164063	-224.7140350341797	756.8189697265626	-1179.114501953125	-251.2493591308594	778.3669433593752	-1228.1435546875	-304.3030395507813	769.2547607421877	-1270.160034179688	-346.6075439453126	825.3540649414065	-1242.07080078125	-510.2615661621095	643.8334960937501	-1096.641357421875	-486.9042968750001	584.9394531250001	-1134.100952148438	-467.7744750976564	630.7008666992189	-1047.05078125	-79.0186004638672	819.6463623046877	-685.2886352539064	-196.0425872802735	802.0173950195315	-516.2985229492189	-218.8761444091797	757.3232421875001	-514.1137695312501	-242.9837036132813	785.903259277344	-466.8233337402345	-296.6221618652344	754.1414794921876	-428.7245178222657	-354.0827026367188	810.2889404296877	-462.4310302734376	-455.1404724121095	627.2766113281251	-630.0033569335939	-439.0645141601564	562.5496215820314	-590.9494628906251	-404.444061279297	616.4190673828126	-680.1531982421876	nan	nan	nan	nan	nan	nan	-541.1303100585939	651.2001953125001	-860.5938110351565	-565.0779418945314	631.4053344726564	-890.6004028320315	-574.1177368164064	631.0325927734376	-837.7652587890627	-371.1286621093751	444.9956970214845	-1095.545532226563	-290.8948669433594	469.7864990234376	-1114.495971679688	-278.9125671386719	513.8410034179689	-1101.84423828125	-243.6611480712891	434.4766845703126	-1120.895141601563	-129.1558685302735	425.4107971191407	-1134.772216796875	-108.3705825805664	376.8145141601563	-1010.04541015625	-188.8013000488282	233.1779022216797	-1107.115234375	-275.7766113281251	251.8692474365235	-1128.959228515625	-245.1611480712891	219.8676910400391	-1122.792846679688	-279.0611877441407	148.48583984375	-1096.035522460938	-382.2446899414063	105.6566238403321	-1098.090087890625	-330.7415771484376	97.5898132324219	-1025.606689453125	-443.8888549804689	49.88080215454103	-1056.28857421875	-222.5523681640626	56.18494033813478	-1085.9150390625	-234.9864349365235	56.06915283203126	-1131.0556640625	-292.1236572265626	35.07975387573243	-1169.536499023438	-363.4202575683594	473.7735290527345	-627.0494384765626	-300.6920776367188	490.7362365722657	-616.4147338867189	-287.8728637695313	520.7703857421876	-627.1707153320314	-236.3733367919922	438.2626953125001	-598.7098999023439	-146.3563079833985	411.979705810547	-586.3790283203126	-114.0977096557617	390.2422485351564	-720.1395263671876	-189.3284149169922	248.8900146484376	-615.2500000000001	-299.2292175292969	237.3340911865235	-615.0678710937501	-263.5427551269532	206.9064483642579	-616.9870605468751	-273.5680541992188	158.4338989257813	-647.8753662109376	-384.2940368652345	101.2022094726563	-646.1735229492189	-342.7315673828126	98.57514190673831	-726.0748901367189	-444.4642639160157	50.79118728637697	-704.0255126953126	-227.3537902832032	54.8175735473633	-654.4636230468751	-240.4215087890626	58.13660812377931	-616.5143432617189	-292.7528076171876	36.17987823486329	-574.1352539062501	nan	nan	nan	
443	2.21	44.75216674804688	1068.616455078125	-891.2756347656252	-81.87656402587892	1027.586791992188	-937.454040527344	-143.3785552978516	995.7525634765627	-806.467224121094	-161.049301147461	929.4090576171877	-849.9758911132815	-406.5658264160157	745.2767333984376	-860.7520141601565	-94.58668518066408	791.4924926757815	-854.1499633789065	-78.95359039306642	851.2094726562502	-1022.236145019531	-199.3491363525391	797.2403564453127	-1184.69287109375	-224.7139282226563	756.6857910156251	-1178.929443359375	-251.0866088867188	778.192810058594	-1228.0859375	-304.1825561523438	768.9981689453127	-1270.098754882813	-346.5300292968751	825.1342773437502	-1242.053466796875	-510.3015136718751	643.8389892578126	-1096.638671875	-486.8419799804689	584.7900390625001	-1134.038696289063	-467.7984924316407	630.7280273437501	-1047.026977539063	-78.99246978759767	819.5538330078127	-685.0853271484376	-195.9634246826172	801.7126464843752	-515.9645385742189	-218.6079559326172	756.9831542968751	-513.9994506835939	-242.792953491211	785.3215332031252	-466.595916748047	-296.4766235351563	753.4809570312501	-428.4092407226564	-353.9934692382813	810.122985839844	-462.3947143554689	-455.1781005859376	627.1172485351564	-629.8074951171876	-439.0212402343751	562.5615234375001	-591.0211791992189	-404.484100341797	616.3836059570314	-680.0236206054689	nan	nan	nan	nan	nan	nan	-541.0496215820314	651.2650756835939	-860.5313110351565	-565.1011962890626	631.4696655273439	-890.5565185546877	-574.1165771484376	631.1177368164064	-837.7407836914065	-371.1193847656251	445.0040283203126	-1095.458740234375	-290.8760070800782	469.8188476562501	-1114.358520507813	-278.8115844726563	513.8107910156251	-1101.719604492188	-243.5136718750001	434.4027099609376	-1120.713623046875	-129.1178436279297	424.567840576172	-1134.6826171875	-108.3168182373047	376.7545471191407	-1009.87939453125	-188.7037048339844	233.1495971679688	-1106.987548828125	-275.7333984375001	251.8819885253907	-1128.846801757813	-245.0758972167969	219.8529663085938	-1122.673706054688	-279.0700683593751	148.5024871826172	-1096.001586914063	-382.2793273925782	105.6592864990235	-1098.07861328125	-330.7511596679688	97.6040954589844	-1025.607421875	-443.8644104003907	49.88904571533205	-1056.301025390625	-222.4301300048829	56.15834808349611	-1085.937744140625	-235.0121459960938	56.0751419067383	-1131.002807617188	-292.1658630371094	35.05647277832032	-1169.541625976563	-363.4609069824219	473.8152160644532	-627.0647583007814	-299.9976806640626	491.385955810547	-615.5568847656251	-287.8742370605469	520.8019409179689	-627.1734619140626	-236.324935913086	438.177215576172	-598.7457885742189	-146.3267669677735	411.9880676269532	-586.3551635742189	-114.2707443237305	390.1794433593751	-720.1322631835939	-189.2947998046875	248.855941772461	-615.3514404296876	-299.2069091796876	237.3746032714844	-615.0582275390626	-263.5370788574219	206.8333282470704	-616.9806518554689	-273.5229187011719	158.4415740966797	-647.8932495117189	-384.290008544922	101.2242507934571	-646.1764526367189	-342.7702636718751	98.56988525390628	-726.0701904296876	-444.5072021484376	50.7919158935547	-704.0002441406251	-227.3368682861329	54.81676101684572	-654.5055541992189	-240.4393463134766	58.18141174316408	-616.5227050781251	-292.6809997558594	36.08610916137696	-574.1220092773439	nan	nan	nan	
444	2.215	44.37130737304688	1068.988037109375	-891.176208496094	-82.42391204833986	1027.898315429688	-937.3355102539065	-143.5747680664063	996.1087646484377	-806.2957763671877	-161.1554565429688	929.7862548828127	-849.6971435546877	-406.5391845703126	745.3878784179689	-860.633483886719	-94.61158752441408	791.5193481445315	-853.9837036132815	-79.06226348876955	851.2974853515627	-1022.178955078125	-199.1883392333985	796.9785766601565	-1184.5439453125	-224.6165161132813	756.6094360351564	-1178.92041015625	-250.8945922851563	777.8847656250002	-1227.983032226563	-304.0618591308594	768.8399658203127	-1270.112060546875	-346.3591918945313	824.944763183594	-1242.140380859375	-510.3001403808595	643.7636718750001	-1096.674072265625	-486.907928466797	584.4855957031251	-1134.183715820313	-467.7805175781251	630.7097167968751	-1047.032958984375	-79.10928344726564	819.4544067382815	-684.8890380859376	-195.7208709716797	801.2897949218752	-515.8347167968751	-218.569564819336	756.6574707031251	-513.7946777343751	-242.7008972167969	785.0758056640627	-466.4139099121095	-295.9995117187501	752.6276855468751	-428.2500305175782	-353.9155883789063	809.9094238281252	-462.082489013672	-455.1839904785157	627.0112915039064	-629.6619262695314	-439.1335754394532	562.2805175781251	-590.9485473632814	-404.3839111328126	616.3495483398439	-679.8589477539064	nan	nan	nan	nan	nan	nan	-541.0418701171876	651.5344848632814	-860.5180664062502	-565.1347656250001	631.6423950195314	-890.5607910156252	-574.0358886718751	631.1596679687501	-837.6668701171877	-371.0426635742188	445.0993652343751	-1095.383422851563	-290.8200683593751	469.8753662109376	-1114.218505859375	-278.7573547363282	513.8624267578126	-1101.607788085938	-243.5394134521485	434.5120849609376	-1120.51708984375	-129.0279998779297	425.384979248047	-1134.41015625	-108.2218246459961	376.7268371582032	-1009.617858886719	-188.6432800292969	233.1427917480469	-1106.936157226563	-275.6511840820313	251.8936920166016	-1128.766235351563	-245.0473785400391	219.8201141357422	-1122.579956054688	-278.9985351562501	148.4924621582032	-1095.917114257813	-382.2620239257813	105.6647872924805	-1098.044311523438	-330.7530212402344	97.62232208251956	-1025.609497070313	-443.8983459472657	49.92945480346681	-1056.318969726563	-222.4680175781251	56.15932083129884	-1085.942749023438	-234.9976654052735	56.09680557250978	-1131.006225585938	-292.1083374023438	35.04872512817384	-1169.568481445313	-363.4287719726563	473.8467407226564	-627.0595703125001	-300.6808166503907	490.8020324707032	-616.4618530273439	-287.8372802734376	520.8796386718751	-627.1519165039064	-236.3599395751954	438.2086181640626	-598.8273315429689	-146.3599853515625	411.9931640625001	-586.3789062500001	-114.1565704345703	390.3401184082032	-720.2213745117189	-189.2276458740235	248.9576568603516	-615.2957153320314	-299.1794128417969	237.3363800048829	-615.0308227539064	-263.4355773925782	206.9098815917969	-616.8820190429689	-273.5218505859376	158.4669036865235	-647.8411865234376	-384.2842102050782	101.2178039550782	-646.1794433593751	-342.7758789062501	98.58341979980472	-726.0548706054689	-444.517547607422	50.72909545898439	-703.9816284179689	-227.3438262939454	54.85278701782228	-654.4939575195314	-240.4343414306641	58.15695571899415	-616.5077514648439	-292.7493286132813	36.19942092895509	-574.1481933593751	nan	nan	nan	
